<?xml version="1.0" standalone="no"?>
<svg xmlns:xlink="http://www.w3.org/1999/xlink" id="wave" style="transform:rotate(0deg); transition: 0.3s" viewBox="0 0 1440 220" version="1.1" xmlns="http://www.w3.org/2000/svg"><defs><linearGradient id="sw-gradient-0" x1="0" x2="0" y1="1" y2="0"><stop stop-color="rgba(0, 34.472, 2.154, 1)" offset="0%"/><stop stop-color="rgba(0, 0, 0, 1)" offset="100%"/></linearGradient></defs><path style="transform:translate(0, 0px); opacity:1" fill="url(#sw-gradient-0)" d="M0,132L60,110C120,88,240,44,360,51.3C480,59,600,117,720,117.3C840,117,960,59,1080,36.7C1200,15,1320,29,1440,62.3C1560,95,1680,147,1800,139.3C1920,132,2040,66,2160,47.7C2280,29,2400,59,2520,80.7C2640,103,2760,117,2880,113.7C3000,110,3120,88,3240,69.7C3360,51,3480,37,3600,40.3C3720,44,3840,66,3960,91.7C4080,117,4200,147,4320,139.3C4440,132,4560,88,4680,66C4800,44,4920,44,5040,69.7C5160,95,5280,147,5400,154C5520,161,5640,125,5760,113.7C5880,103,6000,117,6120,113.7C6240,110,6360,88,6480,95.3C6600,103,6720,139,6840,139.3C6960,139,7080,103,7200,102.7C7320,103,7440,139,7560,128.3C7680,117,7800,59,7920,51.3C8040,44,8160,88,8280,121C8400,154,8520,176,8580,187L8640,198L8640,220L8580,220C8520,220,8400,220,8280,220C8160,220,8040,220,7920,220C7800,220,7680,220,7560,220C7440,220,7320,220,7200,220C7080,220,6960,220,6840,220C6720,220,6600,220,6480,220C6360,220,6240,220,6120,220C6000,220,5880,220,5760,220C5640,220,5520,220,5400,220C5280,220,5160,220,5040,220C4920,220,4800,220,4680,220C4560,220,4440,220,4320,220C4200,220,4080,220,3960,220C3840,220,3720,220,3600,220C3480,220,3360,220,3240,220C3120,220,3000,220,2880,220C2760,220,2640,220,2520,220C2400,220,2280,220,2160,220C2040,220,1920,220,1800,220C1680,220,1560,220,1440,220C1320,220,1200,220,1080,220C960,220,840,220,720,220C600,220,480,220,360,220C240,220,120,220,60,220L0,220Z"/></svg>